<?xml version="1.0" encoding="UTF-8"?><svg id="Layer_1" xmlns="http://www.w3.org/2000/svg" viewBox="0 0 130.43 24.81"><defs><style>.cls-1{fill:#28af4b;}.cls-1,.cls-2{stroke-width:0px;}.cls-2{fill:#1da0b5;}</style></defs><path class="cls-2" d="m18.67,2.38c0,.55-.18,1.01-.55,1.38s-.83.55-1.38.55h-5.45v20.25h-3.91V4.31H1.93c-.5,0-.96-.18-1.38-.55-.37-.37-.55-.83-.55-1.38V.64h18.67v1.74Z"/><path class="cls-2" d="m30.78,17.73h-11.09c.24,1.18.73,2.13,1.48,2.84s1.62,1.07,2.62,1.07c.79,0,1.51-.19,2.17-.57s1.24-.94,1.74-1.68l2.72,1.85c-.71,1.11-1.65,1.97-2.82,2.59s-2.44.93-3.81.93c-1.47,0-2.83-.35-4.07-1.07-1.24-.71-2.22-1.7-2.94-2.96s-1.09-2.68-1.09-4.26.35-2.96,1.05-4.22c.7-1.26,1.64-2.25,2.84-2.96s2.53-1.07,4.01-1.07,2.72.36,3.83,1.07,1.95,1.69,2.55,2.94c.59,1.25.89,2.66.89,4.24,0,.58-.03,1-.08,1.26Zm-4.76-5.33c-.65-.71-1.45-1.06-2.43-1.06s-1.81.35-2.51,1.05c-.7.7-1.16,1.64-1.4,2.82h7.42c-.08-1.16-.44-2.09-1.09-2.8Z"/><path class="cls-2" d="m39.66,8.81c.79-.4,1.7-.59,2.72-.59h.79v4.14c-.24-.21-.55-.37-.95-.47-.39-.1-.8-.16-1.22-.16-.95,0-1.73.38-2.35,1.13-.62.75-.93,1.86-.93,3.33v8.37h-3.91V8.41h1.93c.55,0,1.02.19,1.4.57.38.38.57.84.57,1.36v.04c.5-.66,1.14-1.18,1.93-1.58Z"/><path class="cls-2" d="m56.44,22.58c-1.24,1.45-2.76,2.17-4.58,2.17-1.47,0-2.8-.35-3.97-1.07-1.17-.71-2.09-1.7-2.74-2.96s-.99-2.68-.99-4.26.33-2.99.99-4.24c.66-1.25,1.57-2.23,2.74-2.94s2.49-1.07,3.97-1.07c1.82,0,3.34.72,4.58,2.17v-.04c0-.53.19-.98.57-1.36.38-.38.83-.57,1.36-.57h1.93v16.14h-3.87v-1.97Zm-1.22-9.81c-.82-.96-1.8-1.44-2.96-1.44s-2.18.48-2.98,1.44-1.2,2.19-1.2,3.69.4,2.77,1.2,3.73c.8.96,1.8,1.44,2.98,1.44s2.14-.49,2.96-1.46c.82-.97,1.22-2.21,1.22-3.71s-.41-2.73-1.22-3.69Z"/><path class="cls-1" d="m91.29,18.32c0,1.05.26,1.87.77,2.45.51.58,1.11.87,1.8.87.95,0,1.72-.38,2.33-1.15.6-.76.91-1.87.91-3.32v-6.83c0-.53.2-.98.59-1.36.4-.38.86-.57,1.38-.57h1.93v16.14h-3.91v-1.97c-.5.63-1.14,1.15-1.93,1.56s-1.7.61-2.72.61c-1.42,0-2.62-.51-3.59-1.52-.97-1.01-1.46-2.32-1.46-3.93v-10.89h3.91v9.91Z"/><path class="cls-1" d="m110.78,8.81c.79-.4,1.7-.59,2.72-.59h.79v4.14c-.24-.21-.55-.37-.95-.47-.4-.1-.8-.16-1.22-.16-.95,0-1.73.38-2.35,1.13-.62.75-.93,1.86-.93,3.33v8.37h-3.91V8.41h1.93c.55,0,1.02.19,1.4.57.38.38.57.84.57,1.36v.04c.5-.66,1.14-1.18,1.93-1.58Z"/><path class="cls-1" d="m130.36,17.73h-11.09c.24,1.18.73,2.13,1.48,2.84s1.62,1.07,2.63,1.07c.79,0,1.51-.19,2.17-.57s1.24-.94,1.74-1.68l2.72,1.85c-.71,1.11-1.65,1.97-2.82,2.59-1.17.62-2.44.93-3.81.93-1.47,0-2.83-.35-4.07-1.07-1.24-.71-2.22-1.7-2.94-2.96-.72-1.26-1.09-2.68-1.09-4.26s.35-2.96,1.05-4.22c.7-1.26,1.64-2.25,2.84-2.96,1.2-.71,2.53-1.07,4.01-1.07s2.72.36,3.83,1.07c1.11.71,1.95,1.69,2.55,2.94.59,1.25.89,2.66.89,4.24,0,.58-.03,1-.08,1.26Zm-4.76-5.33c-.64-.71-1.45-1.06-2.43-1.06s-1.81.35-2.51,1.05c-.7.7-1.17,1.64-1.4,2.82h7.42c-.08-1.16-.44-2.09-1.09-2.8Z"/><path class="cls-1" d="m81.42,16.96c-.68,1.24-1.6,2.24-2.74,2.99-.15.1-.31.19-.46.28-.1.06-.21.1-.31.15-.12.05-.19.04-.2-.02-.25-2.46-1.52-4.2-1.44-5.34,0,0,0-.02,0-.03.14-.63.36-1.09.66-1.35,1.57-1.38,3.66-1.55,3.85-4.41.03-.46-.97-.32-1.73-.36-.76-.04-1.67-.5-2.41-1.32-.75-.82-3.09-.77-4.56-.3-1.47.47-3.9,3.33-3.56,4.01.33.68,2.68,2.31,3.03,2.4.36.08,1.19-1.01.81-2.2-.31-.97-.35-1.42-.24-1.88.02-.09.1-.14.18-.13.08.01.14.09.14.18-.01.41.04.9.24,1.47.59,1.64-.51,3.38-.85,3.29-.26-.07-1.05-.55-1.42-.78-.05-.03-.1-.03-.14-.01-.05.02-.08.06-.1.12-.16.59-.63,2.25-1.3,3.75-.03.07-.07.06-.12.02-.07-.11-.16-.21-.23-.32-.08-.13-.15-.27-.22-.41-.68-1.32-1.03-2.77-1.03-4.36s.34-3.04,1.03-4.36c.68-1.32,1.6-2.37,2.76-3.15,1.16-.78,2.42-1.17,3.79-1.17,1.16,0,2.24.28,3.26.83,1.01.56,1.87,1.32,2.58,2.3l3.16-2.14c-1.08-1.45-2.4-2.6-3.97-3.45-1.57-.85-3.24-1.27-5.03-1.27-2.08,0-4,.56-5.76,1.66s-3.16,2.62-4.18,4.52-1.54,3.98-1.54,6.22.51,4.32,1.54,6.22c.65,1.2,1.36,2.16,2.3,3.04.01.01.02.02.03.04,0,0,.02.02.03.03h0s0,0,0,0c.03.03.07.06.11.06,1.08.02,2.11-.34,2.66-1.4.14-.27.25-.59.36-.91l.05-.03s-.02-.02-.03-.03c.5-1.53.85-3.37,3.09-3.66,0,0,.01,0,.02,0,.18,0,.25.07.22.31l-.06.55c0,.09.02.18.1.23,0,0,0,0,0,0h0c.85.47,1.26.76,1.44,2.06,0,.05.03.09.07.12.16.12.39.26.57.38.05.04.11.15.07.3,0,0,0,.01,0,.02-.29.83-1.08,1.34-1.92,1.3-.05,0-.09.02-.13.06-.03.04-.05.09-.04.14.14,1.12.02,2.24-.31,3.31-.02.05,0,.1.02.15.03.05.13.05.18.05.09,0,.18,0,.27,0,.31.03.62.05.94.05,2,0,3.85-.52,5.55-1.55,1.7-1.03,3.07-2.42,4.12-4.16l-3.2-2.14Zm-5.49-7c-.27,0-.48-.23-.48-.51,0-.28.22-.51.48-.51.27,0,.48.23.48.51,0,.28-.22.51-.48.51Z"/><path class="cls-1" d="m74.47,18.95c.02-.23-.13-.44-.35-.46-.22-.02-.41.14-.44.38-.02.23.13.44.35.46.22.02.41-.14.44-.38Z"/></svg>